<svg version="1.1" xmlns="http://www.w3.org/2000/svg" xmlns:xlink="http://www.w3.org/1999/xlink" viewBox="0 0 172 172"><g fill="none" fill-rule="nonzero" stroke="none" stroke-width="1" stroke-linecap="butt" stroke-linejoin="miter" stroke-miterlimit="10" stroke-dasharray="" stroke-dashoffset="0" font-family="none" font-weight="none" font-size="none" text-anchor="none" style="mix-blend-mode: normal"><path d="M0,172v-172h172v172z" fill="none"></path><g fill="#ffffff"><path d="M28.66667,21.5c-7.88333,0 -14.33333,6.45 -14.33333,14.33333v77.34961c0,3.18917 3.85936,4.79102 6.11686,2.53352l15.38314,-15.38314h64.5c7.88333,0 14.33333,-6.45 14.33333,-14.33333v-50.16667c0,-7.88333 -6.45,-14.33333 -14.33333,-14.33333zM129,57.33333v28.66667c0,15.83117 -12.8355,28.66667 -28.66667,28.66667h-43v7.16667c0,7.88333 6.45,14.33333 14.33333,14.33333h64.5l15.38314,15.38314c2.2575,2.2575 6.11686,0.65564 6.11686,-2.53352v-77.34961c0,-7.88333 -6.45,-14.33333 -14.33333,-14.33333z"></path></g></g></svg>